<svg xmlns="http://www.w3.org/2000/svg" viewBox="0 0 576.89 602.17"><defs><style>.cls-1{fill:#c62032;}</style></defs><title>Asset 2</title><g id="Layer_2" data-name="Layer 2"><g id="Layer_1-2" data-name="Layer 1"><path d="M70.41,0V5.52Q61,5.81,56.19,7.59a10.37,10.37,0,0,0-6.49,6.63q-1.65,4.83-1.65,15.05v137q0,9.95,1.65,14.91a10,10,0,0,0,6.49,6.63Q61,189.42,70.41,190v5.52q-6.34-.54-15.87-.69t-19.19-.14q-10.77,0-20.16.14T0,195.5V190q9.39-.55,14.22-2.21a9.93,9.93,0,0,0,6.49-6.63q1.66-5,1.66-14.91v-137q0-10.21-1.66-15a10.35,10.35,0,0,0-6.49-6.63Q9.39,5.81,0,5.52V0Q5.81.29,15.19.55T35.35.83Q45,.83,54.54.55T70.41,0Z"/><path d="M279.4,0V5.52q-9.39.29-14.22,2.76a12.71,12.71,0,0,0-6.49,8Q257,21.83,257,32V196.88h-6.35l-116-179.21v145.8q0,9.94,1.8,15.6a12.4,12.4,0,0,0,7.17,8q5.38,2.35,16.16,2.9v5.52q-5-.54-13-.69t-15.19-.14q-6.9,0-13.94.14T106,195.5V190q9.39-.55,14.22-2.9a12.2,12.2,0,0,0,6.49-8q1.67-5.65,1.66-15.6V29.27q0-10.21-1.66-15a10.35,10.35,0,0,0-6.49-6.63Q115.38,5.81,106,5.52V0q4.7.29,11.74.55t13.94.28q6.08,0,11.6-.28T153.21,0l97.48,150.22V32q0-10.22-1.8-15.74a12.92,12.92,0,0,0-7.18-8q-5.39-2.47-16.15-2.76V0q5,.29,13.11.55t15.05.28q7.18,0,14.22-.28T279.4,0Z"/><path d="M288.09,204q17.15,0,27.7,5.14a125.53,125.53,0,0,1,19.79,12c2.28,1.76,4,2.63,5.27,2.63q5,0,6.6-16.09h6.06q-.52,9.76-.79,23.74t-.26,36.93h-6.07q-1.84-11.07-4.48-21.36a45.19,45.19,0,0,0-8.71-17.68,50.61,50.61,0,0,0-20.05-15.16,63.25,63.25,0,0,0-25.58-5.41,45.23,45.23,0,0,0-23.88,6.46,56.25,56.25,0,0,0-18.33,18.6q-7.65,12.13-11.74,29.15a165,165,0,0,0-4.08,38.38q0,47.48,15.29,69.5t47.49,22a44.74,44.74,0,0,0,16.48-2.77,60.45,60.45,0,0,0,10.95-5.41q5-3.42,6.33-6.46a20.47,20.47,0,0,0,1.32-8.05V344.85q0-10.82-2.11-16.09a11.89,11.89,0,0,0-7.78-7.12q-5.68-1.84-16.75-2.11v-5.28q4.74.27,11.07.4l13.33.26q7,.13,12.79.13,8.7,0,15.69-.26t11.74-.53v5.28q-8.7.53-11.08,4.22t-2.37,18.46v52.23h-5.28a39.11,39.11,0,0,0-2-9.76c-1.15-3.52-2.86-5.28-5.15-5.28a7,7,0,0,0-3.16.8,46.08,46.08,0,0,0-5.54,3.69,77,77,0,0,1-18.47,10.42,61.94,61.94,0,0,1-22.68,3.82q-40.89,0-63.71-24.92t-22.81-69q0-30.87,11.08-53.29t30.2-34.68Q263.57,204,288.09,204Z"/><path d="M576.89,203.09v5.39q-9.15.27-13.86,2.69A12.39,12.39,0,0,0,556.7,219q-1.61,5.39-1.61,15.34v81a194.47,194.47,0,0,1-2.43,32.85,68.9,68.9,0,0,1-8.61,24.22,49,49,0,0,1-19.65,18.18q-12.93,6.86-29.62,6.86a96.2,96.2,0,0,1-24.63-3.09,47.35,47.35,0,0,1-20.6-11.45,64.12,64.12,0,0,1-12.25-15.88q-4.44-8.34-6.05-20.46a236.16,236.16,0,0,1-1.62-30.42V231.63q0-10-1.61-14.67a10.1,10.1,0,0,0-6.33-6.46c-3.14-1.17-7.77-1.84-13.86-2v-5.39q5.64.28,14.8.54t19.65.27q9.42,0,18.72-.27t15.48-.54v5.39q-9.17.27-13.87,2a10.06,10.06,0,0,0-6.32,6.46q-1.62,4.71-1.62,14.67v89.11a195.75,195.75,0,0,0,2.69,33.66q2.68,15.35,11.71,24.5t28.14,9.15q20.44,0,31.63-9t15.61-24.9a132.63,132.63,0,0,0,4.45-35.81v-84q0-9.94-2.29-15.34a14.58,14.58,0,0,0-7.67-7.81q-5.4-2.41-14.54-2.69v-5.39q4.85.28,12.79.54t14.67.27c4.66,0,9.29-.09,13.86-.27S574,203.28,576.89,203.09Z"/><path d="M262.63,406.49V412L152.78,595.08h54q12.93,0,21.06-2.76a27.62,27.62,0,0,0,12.94-8.67q4.81-5.91,7.29-15.83a167.16,167.16,0,0,0,3.86-24.23h6.33q-.83,8.55-.82,22.58,0,5.24.41,15t1.51,20.24q-15.13-.55-34.27-.69t-34.28-.14q-16.25,0-34.27.14t-33.73.69V595.9L233.44,412.82H179.76q-17.07,0-26.15,5t-13.08,16.1q-4,11.16-5.92,30.43h-6.33q.54-4.41.68-10.19t.14-12.39c0-3.48-.14-8.49-.41-15s-.78-13.26-1.51-20.24q15.4.56,34.41.69t34.14.14q15.69,0,33.72-.14T262.63,406.49Z"/><path class="cls-1" d="M311.33,567.3a17.67,17.67,0,1,1-12.26,5.17A16.81,16.81,0,0,1,311.33,567.3Z"/></g></g></svg>